<?xml version="1.0" encoding="UTF-8"?>
<svg id="Layer_1" data-name="Layer 1" xmlns="http://www.w3.org/2000/svg" viewBox="0 0 1751.79 825.87">
  <defs>
    <style>
      .cls-1 {
        fill: #f5eddc;
      }

      .cls-2 {
        fill: #a084ca;
      }

      .cls-3 {
        fill: #f0d186;
      }

      .cls-4 {
        fill: #ec7272;
      }
    </style>
  </defs>
  <g>
    <path class="cls-2" d="M712.7,473.4c.97,41.42-6.85,83.19-21.6,122.01-43.5,114.39-149.49,202.71-269.84,224.87-120.35,22.16-250.85-22.63-332.24-114.02C37.2,648.05,5.08,572.04,2.23,494.16c-1.62-44.39,6.44-89.11,23.33-130.19,16.82-40.92,42.87-77.63,74.58-108.35,31.98-30.98,69.3-55.62,106.09-80.41,25.73-17.33,51.43-34.82,75.28-54.7,36.4-30.35,70.61-74.05,61.33-120.52,10.48,5.82,22.2,9.38,34.15,10.37-7.24,32.56,7.57,66.76,29.96,91.48,22.39,24.72,51.66,41.9,79.86,59.71,95.69,60.43,189.43,140.19,217.49,249.83,5.19,20.3,7.92,41.11,8.4,62.01Z"/>
    <circle class="cls-1" cx="356.52" cy="473.4" r="278.03"/>
    <circle class="cls-4" cx="356.52" cy="471.88" r="251.95"/>
    <circle class="cls-3" cx="356.52" cy="471.88" r="62.32"/>
    <path class="cls-3" d="M163.41,471.88c21.7-9.35,51.63-9.18,74.13-2.61,3.6,1.13,7.1,2.34,10.51,4.12-3.47,1.66-7.02,2.75-10.65,3.74-22.71,5.76-52.62,4.87-73.98-5.26h0Z"/>
    <path class="cls-3" d="M356.52,278.77c10.12,21.35,11.02,51.27,5.26,73.98-1,3.64-2.09,7.18-3.74,10.65-1.78-3.41-3-6.91-4.12-10.51-6.57-22.49-6.75-52.42,2.61-74.13h0Z"/>
    <path class="cls-3" d="M356.52,664.99c-9.35-21.7-9.18-51.63-2.61-74.13,1.13-3.6,2.34-7.1,4.12-10.51,1.66,3.47,2.75,7.02,3.74,10.65,5.76,22.71,4.87,52.62-5.26,73.98h0Z"/>
    <path class="cls-3" d="M219.32,335.98c22,8.63,43.14,29.81,54.5,50.32,1.76,3.33,3.4,6.66,4.56,10.32-3.63-1.27-6.92-2.99-10.2-4.84-20.19-11.89-40.82-33.57-48.86-55.8h0Z"/>
    <path class="cls-3" d="M494.63,336.9c-8.65,21.99-29.85,43.12-50.37,54.45-3.33,1.76-6.66,3.39-10.33,4.55,1.27-3.63,2.99-6.92,4.85-10.2,11.91-20.18,33.61-40.78,55.85-48.81h0Z"/>
    <path class="cls-3" d="M494.42,607.07c-22.17-8.18-43.74-28.93-55.52-49.19-1.83-3.29-3.53-6.59-4.77-10.23,3.66,1.19,6.98,2.85,10.3,4.63,20.43,11.47,41.49,32.73,49.99,54.79h0Z"/>
    <path class="cls-3" d="M218.61,607.07c8.49-22.05,29.56-43.31,49.99-54.79,3.32-1.78,6.64-3.44,10.3-4.63-1.24,3.64-2.94,6.93-4.77,10.23-11.77,20.26-33.34,41.01-55.52,49.19h0Z"/>
    <path class="cls-3" d="M549.62,471.88c-21.35,10.12-51.27,11.02-73.98,5.26-3.63-1-7.18-2.09-10.65-3.74,3.41-1.78,6.91-3,10.51-4.12,22.49-6.57,52.42-6.75,74.13,2.61h0Z"/>
  </g>
  <g>
    <g>
      <path class="cls-1" d="M1106.13,313.24h-191.41v169.53h177.05v51.61h-177.05v217.04h-57.42V261.29h248.83v51.95Z"/>
      <path class="cls-1" d="M1751.79,717.93c-49.22,27.8-103.91,41.7-164.06,41.7-69.96,0-126.52-22.56-169.7-67.68-43.18-45.12-64.77-104.81-64.77-179.1s23.98-138.14,71.95-186.79c47.96-48.65,108.75-72.97,182.35-72.97,53.32,0,98.1,8.66,134.33,25.98v63.57c-39.65-25.06-86.59-37.6-140.82-37.6s-99.92,18.92-135.01,56.74c-35.09,37.83-52.64,86.82-52.64,146.97s16.29,110.69,48.88,146.12c32.58,35.43,76.79,53.15,132.62,53.15,38.28,0,71.44-7.63,99.46-22.9v-137.4h-107.32v-51.95h164.75v222.17Z"/>
    </g>
    <g>
      <polygon class="cls-1" points="1180.02 107.75 1180.02 230.92 1286.69 169.33 1180.02 107.75"/>
      <polygon class="cls-1" points="1256.52 230.13 1256.52 752.43 1199.1 752.43 1199.1 263.28 1200.81 262.29 1256.52 230.13"/>
    </g>
  </g>
</svg>